<?xml version="1.0" encoding="UTF-8"?>
<svg xmlns="http://www.w3.org/2000/svg" viewBox="0 0 841.89 595.28">
  <defs>
    <style>
      .cls-1 {
        fill: #fff;
        stroke-miterlimit: 10;
      }

      .cls-1, .cls-2 {
        stroke: #231f20;
      }

      .cls-2 {
        fill: none;
        stroke-linecap: round;
        stroke-linejoin: round;
        stroke-width: 15px;
      }
    </style>
  </defs>
  <g id="_정사각형" data-name="정사각형">
    <rect class="cls-1" x="193.07" y="73.9" width="447.47" height="447.47"/>
  </g>
  <g id="Layer_6" data-name="Layer 6">
    <g>
      <polygon class="cls-2" points="370.34 289.41 408.09 257.15 364.59 233.25 398.13 203.66 441.65 226.7 513.21 164 620.32 221.63 619.29 352.81 368.51 472.5 369.18 410.1 408.15 391.25 408.06 331.49 370.44 349.41 370.34 289.41"/>
      <polygon class="cls-2" points="477.08 195.6 342.3 122.77 213.39 235.39 213.29 266.76 269.72 274.9 269.79 322.32 314.19 328.99 314.14 281.31 370.34 289.41 408.09 257.15 364.59 233.25 398.13 203.66 440.85 226.7 477.08 195.6"/>
      <polygon class="cls-2" points="370.34 289.41 314.14 281.31 314.19 328.99 269.79 322.32 269.72 274.9 213.29 266.76 213.39 388.72 368.51 472.5 369.18 410.1 408.15 391.25 408.06 331.49 370.44 349.41 370.34 289.41"/>
    </g>
  </g>
</svg>