<?xml version="1.0" encoding="UTF-8"?>
<svg id="Layer_1" xmlns="http://www.w3.org/2000/svg" viewBox="0 0 23.24 25">
  <defs>
    <style>
      .cls-1 {
        fill: #fff;
      }
    </style>
  </defs>
  <path class="cls-1" d="M10.59,3.95h2.16c.38,0,.69.31.69.69v19.02c0,.74-.6,1.34-1.34,1.34h-.87c-.74,0-1.34-.6-1.34-1.34V4.64c0-.38.31-.69.69-.69Z"/>
  <path class="cls-1" d="M12.93,5.55l7.25,7.5c.69.71,1.83.71,2.52,0l.03-.04c.67-.69.67-1.77,0-2.45L12.92.52c-.69-.7-1.82-.7-2.51.02L.5,10.74c-.68.7-.67,1.81.02,2.48h0c.69.67,1.81.65,2.48-.05l7.4-7.62c.69-.71,1.84-.72,2.52,0Z"/>
</svg>